{"title":"Americas.Got.Talent.S09E04.720p.HDTV.x264-FiNCH","uid":10381112,"size":2322210202,"categoryP":"video","categoryS":"hd___tv_shows","magnet":"?xt=urn:btih:0ffe312827371f4f95a523c994df850a6abadfa3&amp;dn=Americas.Got.Talent.S09E04.720p.HDTV.x264-FiNCH&amp;tr=udp%3A%2F%2Ftracker.openbittorrent.com%3A80&amp;tr=udp%3A%2F%2Fopen.demonii.com%3A1337&amp;tr=udp%3A%2F%2Ftracker.coppersurfer.tk%3A6969&amp;tr=udp%3A%2F%2Fexodus.desync.com%3A6969","seeders":6,"leechers":1,"uploader":"FiNCH","files":-1,"time":1403078220,"description":"*******************************************************************************\n              Americas.Got.Talent.S09E04.720p.HDTV.x264-FiNCH\n*******************************************************************************\n\n-------------------------------------------------------------------------------\nGeneral Information\n-------------------------------------------------------------------------------\n\nFormat : Matroska\nFormat version : Version 4 / Version 2\nFile size : 2.15 GiB\nDuration : 1h 24mn\nOverall bit rate mode : Variable\nOverall bit rate : 3 614 Kbps\nEncoded date : UTC 2014-06-18 05:39:08\nWriting application : mkvmerge v6.7.0 ('Back to the Ground') 32bit built on Jan 8 2014 15:03:17\nWriting library : libebml v1.3.0 + libmatroska v1.4.1\n\nVideo\nID : 2\nFormat : AVC\nFormat/Info : Advanced Video Codec\nFormat profile : &lt;a class=&quot;__cf_email__&quot; href=&quot;/cdn-cgi/l/email-protection&quot; data-cfemail=&quot;de96b7b9b69e92eaf0ef&quot;&gt;[email&amp;#160;protected]&lt;/a&gt;&lt;script cf-hash='f9e31' type=&quot;text/javascript&quot;&gt;\n/* &lt;![CDATA[ */!function(){try{var t=&quot;currentScript&quot;in document?document.currentScript:function(){for(var t=document.getElementsByTagName(&quot;script&quot;),e=t.length;e--;)if(t[e].getAttribute(&quot;cf-hash&quot;))return t[e]}();if(t&amp;&amp;t.previousSibling){var e,r,n,i,c=t.previousSibling,a=c.getAttribute(&quot;data-cfemail&quot;);if(a){for(e=&quot;&quot;,r=parseInt(a.substr(0,2),16),n=2;a.length-n;n+=2)i=parseInt(a.substr(n,2),16)^r,e+=String.fromCharCode(i);e=document.createTextNode(e),c.parentNode.replaceChild(e,c)}}}catch(u){}}();/* ]]&gt; */&lt;/script&gt;\nFormat settings, CABAC : Yes\nFormat settings, ReFrames : 4 frames\nCodec ID : V_MPEG4/ISO/AVC\nDuration : 1h 25mn\nBit rate mode : Variable\nBit rate : 3 158 Kbps\nMaximum bit rate : 40.0 Mbps\nWidth : 1 280 pixels\nHeight : 720 pixels\nDisplay aspect ratio : 16:9\nFrame rate mode : Constant\nFrame rate : 29.970 fps\nColor space : YUV\nChroma subsampling : 4:2:0\nBit depth : 8 bits\nScan type : Progressive\nBits/(Pixel*Frame) : 0.114\nStream size : 1.88 GiB (87%)\nWriting library : x264 core 138 r2358 9e941d1\ncrf=21.0\n\nAudio\nID : 1\nFormat : AC-3\nFormat/Info : Audio Coding 3\nMode extension : CM (complete main)\nFormat settings, Endianness : Big\nCodec ID : A_AC3\nDuration : 1h 24mn\nBit rate mode : Constant\nBit rate : 384 Kbps\nChannel(s) : 2 channels\nChannel positions : Front: L R\nSampling rate : 48.0 KHz\nBit depth : 16 bits\nCompression mode : Lossy\nStream size : 233 MiB (11%)\nLanguage : English\nDefault : Yes\nForced : No\n\n-------------------------------------------------------------------------------\n-------------------------------------------------------------------------------\n\nSCREENS\n         &lt;a href=&quot;\nhttp://postimg.org/image/y4ocym59r/&quot; rel=&quot;nofollow&quot; target=&quot;_NEW&quot;&gt;\nhttp://postimg.org/image/y4ocym59r/&lt;/a&gt; &lt;a href=&quot;\nhttp://postimg.org/image/g4f5u8d2n/&quot; rel=&quot;nofollow&quot; target=&quot;_NEW&quot;&gt;\nhttp://postimg.org/image/g4f5u8d2n/&lt;/a&gt; &lt;a href=&quot;\nhttp://postimg.org/image/9pg4xk6cv/&quot; rel=&quot;nofollow&quot; target=&quot;_NEW&quot;&gt;\nhttp://postimg.org/image/9pg4xk6cv/&lt;/a&gt; &lt;a href=&quot;\nhttp://postimg.org/image/aua72xstr/&quot; rel=&quot;nofollow&quot; target=&quot;_NEW&quot;&gt;\nhttp://postimg.org/image/aua72xstr/&lt;/a&gt; &lt;a href=&quot;\nhttp://postimg.org/image/ibjei5icv/&quot; rel=&quot;nofollow&quot; target=&quot;_NEW&quot;&gt;\nhttp://postimg.org/image/ibjei5icv/&lt;/a&gt;","torrent":{"xt":"urn:btih:0ffe312827371f4f95a523c994df850a6abadfa3","amp;dn":"Americas.Got.Talent.S09E04.720p.HDTV.x264-FiNCH","amp;tr":["udp%3A%2F%2Ftracker.openbittorrent.com%3A80","udp%3A%2F%2Fopen.demonii.com%3A1337","udp%3A%2F%2Ftracker.coppersurfer.tk%3A6969","udp%3A%2F%2Fexodus.desync.com%3A6969"],"infoHash":"0ffe312827371f4f95a523c994df850a6abadfa3","infoHashBuffer":{"type":"Buffer","data":[15,254,49,40,39,55,31,79,149,165,35,201,148,223,133,10,106,186,223,163]},"announce":[],"urlList":[]}}